<svg xmlns="http://www.w3.org/2000/svg" viewBox="0 0 64 64">
  <defs>
    <linearGradient id="bg" x1="10" y1="8" x2="54" y2="56" gradientUnits="userSpaceOnUse">
      <stop offset="0" stop-color="#0ea5e9" />
      <stop offset="1" stop-color="#0369a1" />
    </linearGradient>
  </defs>
  <rect x="6" y="6" width="52" height="52" rx="14" fill="url(#bg)" />
  <path
    d="M20 25h24a2 2 0 0 1 2 2v6H18v-6a2 2 0 0 1 2-2Zm4 8h16v15a2 2 0 0 1-2 2H26a2 2 0 0 1-2-2V33Zm8-17c3.866 0 7 3.134 7 7h-4c0-1.657-1.343-3-3-3s-3 1.343-3 3h-4c0-3.866 3.134-7 7-7Z"
    fill="#fff"
  />
</svg>
